# xmcd
#
# Track frame offsets:
#  150
#  14925
#  25200
#  37425
#  47775
#  61500
#  72900
#  84525
#  97275
#  107025
#  117550
#  128550
#  140025
#  148762
#  158850
#
# Disc length: 2246 seconds
#
# Revision: 0
# Processed by: cddbd v1.4PL0 Copyright (c) Steve Scherf et al.
# Submitted via: AltoMP3_Maker 3.0
#
DISCID=e608c40f
DTITLE=Paul Anka - His Ultimate Hits
DYEAR=1900
DGENRE=
TTITLE0=I don't like to sleep alone
TTITLE1=Eso beso
TTITLE2=You are my destiny
TTITLE3=Diana
TTITLE4=One man woman, one woman man
TTITLE5=Lonely boy
TTITLE6=Put your head on my shoulder
TTITLE7=(I belive) There's nothing stronger than oul
TTITLE8=A steel guitar and a glass of wine
TTITLE9=Ogni volta
TTITLE10=Adam and Eve
TTITLE11=(You're) Having my baby
TTITLE12=Let the bells keep ringing
TTITLE13=Love me warm and tender
TTITLE14=I love you baby
EXTD=
EXTT0=
EXTT1=
EXTT2=
EXTT3=
EXTT4=
EXTT5=
EXTT6=
EXTT7=
EXTT8=
EXTT9=
EXTT10=
EXTT11=
EXTT12=
EXTT13=
EXTT14=
PLAYORDER=
